<svg xmlns="http://www.w3.org/2000/svg" version="1.1" xmlns:xlink="http://www.w3.org/1999/xlink" xmlns:svgjs="http://svgjs.dev/svgjs" width="222.51" height="223.71"><svg xmlns="http://www.w3.org/2000/svg" viewBox="0 0 222.51 223.71"><defs><style>.cls-1{fill:#c3eefc;}.cls-2{fill:#fff;}.cls-3{fill:#016287;}.cls-4{fill:#049dc6;}.cls-5{fill:#2cb1ef;}</style></defs><g id="SvgjsG1003" data-name="Layer 2"><g id="SvgjsG1002" data-name="Layer 1"><circle class="cls-1" cx="121.44" cy="111.06" r="75.78"></circle><path class="cls-2" d="M40.22,132.7,100.88,88l106.59,78.54S181,189,155.61,193.45,63,183.16,63,183.16Z"></path><rect class="cls-3" x="87.7" y="129.12" width="13.19" height="13.19"></rect><rect class="cls-3" x="103.38" y="129.12" width="13.19" height="13.19"></rect><rect class="cls-3" x="87.7" y="144.81" width="13.19" height="13.19"></rect><rect class="cls-3" x="103.38" y="144.81" width="13.19" height="13.19"></rect><polygon class="cls-3" points="208.68 158.96 203.11 166.56 102.14 92.45 26.59 147.89 26.59 136.21 102.14 80.78 208.68 158.96"></polygon><path class="cls-4" d="M213.23,168.89A115.15,115.15,0,1,1,57.85,8.67c1.33-.76,8.71,12.2,5.28,15.66a104.21,104.21,0,1,0,150.1,144.56Z"></path><path class="cls-5" d="M222.51,140.89A104,104,0,1,1,58,26.16S64.85,38,62.48,41.71a94.14,94.14,0,1,0,160,99.18Z"></path><path class="cls-3" d="M69.19,2.8,64.48,5.08,79.1,35.28,83.81,33ZM63,5.81l-1.68.81L75.92,36.83,77.61,36ZM88.82,18.86a4.81,4.81,0,0,1,3.74-4.63,52.39,52.39,0,0,0,8.75-3c4.9-2.37,8.94-7.34,10.65-9.67a.83.83,0,0,0-.65-1.38c-2.83-.15-9-.12-14.2,2.38a44,44,0,0,0-7.45,5.16c-1.91,1.53-4.61,1.6-6.14.18L75,0l-4.3,2.08L85.3,32.28l4.3-2.08ZM102.26,5.43c-.3-.62.36-1.56,1.49-2.11s2.29-.48,2.59.14S106,5,104.84,5.57,102.55,6.05,102.26,5.43Z"></path><path class="cls-3" d="M60,7.26,74.6,37.46,67.72,40.8C61.15,44,58.41,47.27,57.42,53L56,46.45l-.41,2.83s-1.54-4-1.23-5.81l-.89,1.42s-3.44-5.88-3-9.52l-.57,2.24s-2.16-5.84,2.15-10.39c0,0-3.89,2.87-4.14,6.27,0,0-1.75-5.39-1.18-6.65l-1,2.13s-1.3-4.46.72-7.24a6,6,0,0,0-2,2.78S42.53,15.71,60,7.26Z"></path><polygon class="cls-3" points="181.95 142.31 152.5 124.31 152.5 101.54 181.95 101.54 181.95 142.31"></polygon><circle class="cls-5" cx="70.68" cy="61.32" r="16.24"></circle><circle class="cls-5" cx="201.18" cy="133.98" r="12.05"></circle><circle class="cls-5" cx="81.44" cy="45.07" r="5.49"></circle></g></g></svg><style>@media (prefers-color-scheme: light) { :root { filter: none; } }
@media (prefers-color-scheme: dark) { :root { filter: none; } }
</style></svg>