<svg width="70" height="70" viewBox="0 0 70 70" fill="none" xmlns="http://www.w3.org/2000/svg">
<g clip-path="url(#clip0_55_264)">
<path d="M23.3333 20.4167C23.3333 23.5109 24.5625 26.4783 26.7504 28.6662C28.9383 30.8542 31.9058 32.0833 35 32.0833C38.0942 32.0833 41.0616 30.8542 43.2496 28.6662C45.4375 26.4783 46.6666 23.5109 46.6666 20.4167C46.6666 17.3225 45.4375 14.355 43.2496 12.1671C41.0616 9.97916 38.0942 8.75 35 8.75C31.9058 8.75 28.9383 9.97916 26.7504 12.1671C24.5625 14.355 23.3333 17.3225 23.3333 20.4167Z" stroke="#1E6287" stroke-width="5" stroke-linecap="round" stroke-linejoin="round"/>
<path d="M17.5 61.25V55.4167C17.5 52.3225 18.7292 49.355 20.9171 47.1671C23.105 44.9792 26.0725 43.75 29.1667 43.75H40.8333C43.9275 43.75 46.895 44.9792 49.0829 47.1671C51.2708 49.355 52.5 52.3225 52.5 55.4167V61.25" stroke="#1E6287" stroke-width="5" stroke-linecap="round" stroke-linejoin="round"/>
</g>
<defs>
<clipPath id="clip0_55_264">
<rect width="70" height="70" fill="white"/>
</clipPath>
</defs>
</svg>
