<svg width="46" height="60" viewBox="0 0 46 60" fill="none" xmlns="http://www.w3.org/2000/svg">
<path d="M6.82158 55.8855V4.11462L10.0574 7.35029V55.8855" stroke="#016287" stroke-width="2" stroke-miterlimit="10" stroke-linecap="round" stroke-linejoin="round"/>
<path d="M39.1785 14.4557V4.11462L35.9427 7.35029V55.8855" stroke="#016287" stroke-width="2" stroke-miterlimit="10" stroke-linecap="round" stroke-linejoin="round"/>
<path d="M39.1785 55.8855V18.5575" stroke="#016287" stroke-width="2" stroke-miterlimit="10" stroke-linecap="round" stroke-linejoin="round"/>
<path d="M11.0297 4.11457H3.70989C3.64145 4.11457 3.58591 4.05902 3.58591 3.99059V1.00289C3.58591 0.934453 3.64145 0.878906 3.70989 0.878906H42.2901C42.3586 0.878906 42.4141 0.934453 42.4141 1.00289V3.99059C42.4141 4.05902 42.3586 4.11457 42.2901 4.11457H15.1313" stroke="#016287" stroke-width="2" stroke-miterlimit="10" stroke-linecap="round" stroke-linejoin="round"/>
<path d="M19.4661 55.8854H43.908C43.9765 55.8854 44.032 55.9409 44.032 56.0094V58.9971C44.032 59.0655 43.9765 59.121 43.908 59.121H2.09212C2.02369 59.121 1.96814 59.0655 1.96814 58.9971V56.0094C1.96814 55.9409 2.02369 55.8854 2.09212 55.8854H15.3644" stroke="#016287" stroke-width="2" stroke-miterlimit="10" stroke-linecap="round" stroke-linejoin="round"/>
<path d="M10.0574 7.35022H35.9427" stroke="#016287" stroke-width="2" stroke-miterlimit="10" stroke-linecap="round" stroke-linejoin="round"/>
</svg>
