<svg width="19" height="19" viewBox="0 0 19 19" fill="none" xmlns="http://www.w3.org/2000/svg">
<path d="M9.39846 18.7C4.32503 18.7 0.196899 14.5734 0.196899 9.5C0.196899 4.42656 4.32502 0.299999 9.39846 0.299999C11.6969 0.299999 13.8969 1.15156 15.5953 2.69844L15.9047 2.98125L12.8703 6.01562L12.5891 5.775C11.6985 5.0125 10.5657 4.59219 9.39847 4.59219C6.69222 4.59219 4.48909 6.79375 4.48909 9.5C4.48909 12.2063 6.69222 14.4078 9.39847 14.4078C11.35 14.4078 12.8922 13.4109 13.6188 11.7125H8.99847V7.57031L18.0188 7.58281L18.086 7.9C18.5563 10.1328 18.1797 13.4172 16.2735 15.7672C14.6953 17.7125 12.3828 18.7 9.39846 18.7Z" fill="#767676"/>
</svg>
