<svg width="20" height="21" viewBox="0 0 20 21" fill="none" xmlns="http://www.w3.org/2000/svg">
<path d="M8.53591 1.30312C7.41716 1.34531 5.09997 2.04219 4.59529 2.5625C4.4031 2.74531 4.35466 3.02031 4.4031 3.20312C4.49841 3.38594 8.3906 9.29219 8.3906 9.29219C8.96716 10.2078 9.26716 10.1062 9.41247 10.0609C9.55622 10.0141 10.0359 9.84219 9.9406 8.74375C9.89216 7.50625 9.50779 2.05937 9.46091 1.78437C9.36404 1.55625 9.22029 1.37187 8.93122 1.325C8.82966 1.30312 8.69529 1.29687 8.53591 1.30312ZM14.6562 6.9C14.5437 6.90469 14.4343 6.93906 14.339 7.00781C14.039 7.30312 14.1453 7.09375 12.4187 9.38125L11.6015 10.4328C11.4093 10.6609 11.4547 11.0437 11.6468 11.3187C11.839 11.5937 12.1 11.7391 12.4656 11.6687C12.6093 11.6219 12.8984 11.5766 13.425 11.4391C16.7375 10.7078 16.7672 10.7125 16.9125 10.6219C17.1031 10.4844 17.2 10.3016 17.2 10.0266V9.98125C17.1031 9.25 15.6828 7.28281 15.0109 6.9625C14.8906 6.91719 14.7703 6.89375 14.6562 6.9ZM3.75622 10.0875C3.56404 10.0875 3.32341 10.1797 3.1781 10.4078C2.84216 10.8672 2.73904 12.3281 2.83435 13.3359C2.88279 13.6562 2.93122 13.9172 3.02654 14.1C3.17029 14.3297 3.36247 14.4672 3.6031 14.4672C3.74685 14.4672 3.63747 14.425 6.52029 13.6016L7.81872 13.1891C8.15466 13.0969 8.38904 12.8672 8.38904 12.5016C8.38904 12.1359 8.21091 11.8328 7.87497 11.6953L6.96247 11.3297C3.83904 10.0922 3.89997 10.0875 3.75622 10.0875ZM12.4375 13.3094C12.1875 13.2906 11.9531 13.3531 11.775 13.5437C11.6203 13.7125 11.5031 14.1922 11.6953 14.4672L12.2234 15.2437C13.9531 17.9 13.9625 18.0359 14.1062 18.1281C14.2984 18.3109 14.539 18.3125 14.7797 18.2203C15.5484 17.9453 17.0515 16.125 17.1468 15.3922C17.1953 15.1641 17.1 14.9344 16.9062 14.7062C16.8109 14.6141 16.6109 14.5812 13.9187 13.7453L12.6875 13.3547C12.6047 13.3312 12.5203 13.3156 12.4375 13.3094ZM9.22497 14.1125C8.96716 14.0844 8.71872 14.1359 8.57497 14.3422L7.94997 15.0734C5.78747 17.5 5.69216 17.6375 5.64372 17.775C5.59529 17.8672 5.59529 17.9578 5.59529 18.05C5.64372 18.1859 5.69216 18.2781 5.78747 18.4156C6.3156 18.9656 8.64997 19.8234 9.41872 19.6859C9.65935 19.6406 9.85154 19.5016 9.94685 19.2734C9.99529 19.1359 9.99372 19.0453 9.99372 16.1609V14.8328C9.99529 14.4312 9.81872 14.2984 9.48122 14.1609C9.39841 14.1375 9.31091 14.1203 9.22497 14.1125Z" fill="#767676"/>
</svg>
