<svg width="70" height="70" viewBox="0 0 70 70" fill="none" xmlns="http://www.w3.org/2000/svg">
<g clip-path="url(#clip0_55_320)">
<path d="M46.6667 52.4998C48.2138 52.4998 49.6975 53.1144 50.7915 54.2084C51.8854 55.3023 52.5 56.7861 52.5 58.3332C52.5 56.7861 53.1146 55.3023 54.2085 54.2084C55.3025 53.1144 56.7862 52.4998 58.3333 52.4998C56.7862 52.4998 55.3025 51.8853 54.2085 50.7913C53.1146 49.6973 52.5 48.2136 52.5 46.6665C52.5 48.2136 51.8854 49.6973 50.7915 50.7913C49.6975 51.8853 48.2138 52.4998 46.6667 52.4998ZM46.6667 17.4998C48.2138 17.4998 49.6975 18.1144 50.7915 19.2084C51.8854 20.3023 52.5 21.7861 52.5 23.3332C52.5 21.7861 53.1146 20.3023 54.2085 19.2084C55.3025 18.1144 56.7862 17.4998 58.3333 17.4998C56.7862 17.4998 55.3025 16.8853 54.2085 15.7913C53.1146 14.6973 52.5 13.2136 52.5 11.6665C52.5 13.2136 51.8854 14.6973 50.7915 15.7913C49.6975 16.8853 48.2138 17.4998 46.6667 17.4998ZM26.25 52.4998C26.25 47.8585 28.0937 43.4074 31.3756 40.1255C34.6575 36.8436 39.1087 34.9998 43.75 34.9998C39.1087 34.9998 34.6575 33.1561 31.3756 29.8742C28.0937 26.5923 26.25 22.1411 26.25 17.4998C26.25 22.1411 24.4063 26.5923 21.1244 29.8742C17.8425 33.1561 13.3913 34.9998 8.75 34.9998C13.3913 34.9998 17.8425 36.8436 21.1244 40.1255C24.4063 43.4074 26.25 47.8585 26.25 52.4998Z" stroke="#1E6287" stroke-width="5" stroke-linecap="round" stroke-linejoin="round"/>
</g>
<defs>
<clipPath id="clip0_55_320">
<rect width="70" height="70" fill="white"/>
</clipPath>
</defs>
</svg>
