<svg width="56" height="60" viewBox="0 0 56 60" fill="none" xmlns="http://www.w3.org/2000/svg">
<path d="M20.4851 40.871H18.9851V51H6.98511V19.5469H20.4851H33.0577V25.1443L20.4851 25.1445L18.9851 25.1445V26.6445V34.1445V35.6445H20.4851H25.4135V40.871C25.4135 41.8177 24.6461 42.5852 23.6993 42.5852C22.7526 42.5852 21.9851 41.8177 21.9851 40.871H20.4851Z" fill="#016287" stroke="#016287" stroke-width="3"/>
<path d="M1.69446 18.0469L28 1.17188L54.3055 18.0469H1.69446Z" stroke="#016287" stroke-width="3" stroke-miterlimit="10" stroke-linecap="round" stroke-linejoin="round"/>
<path d="M28 52.5H5.48511V18.1641" stroke="#016287" stroke-width="3" stroke-miterlimit="10" stroke-linecap="round" stroke-linejoin="round"/>
<path d="M50.4851 18.1641V52.5H33.7659" stroke="#016287" stroke-width="3" stroke-miterlimit="10" stroke-linecap="round" stroke-linejoin="round"/>
<path d="M41.1101 26.6444H20.4851V34.1444H41.1101V26.6444Z" stroke="#016287" stroke-width="3" stroke-miterlimit="10" stroke-linecap="round" stroke-linejoin="round"/>
<path d="M41.1101 30.3944C41.0908 30.3944 45.7976 30.3944 45.7976 30.3944V38.129L30.7976 41.3281V47.0667" stroke="#016287" stroke-width="3" stroke-miterlimit="10" stroke-linecap="round" stroke-linejoin="round"/>
<path d="M32.2204 47.0667H29.3747C28.7366 47.0667 28.2194 47.5839 28.2194 48.222V57.6729C28.2194 58.311 28.7366 58.8283 29.3747 58.8283H32.2204C32.8585 58.8283 33.3757 58.311 33.3757 57.6729V48.222C33.3757 47.5839 32.8585 47.0667 32.2204 47.0667Z" stroke="#016287" stroke-width="3" stroke-miterlimit="10" stroke-linecap="round" stroke-linejoin="round"/>
</svg>
