<svg width="61" height="60" viewBox="0 0 61 60" fill="none" xmlns="http://www.w3.org/2000/svg">
<path d="M2.25781 1.75798H58.742V58.2422H2.25781V1.75798Z" stroke="#016287" stroke-width="3" stroke-miterlimit="10" stroke-linecap="round" stroke-linejoin="round"/>
<path d="M58.742 20.586L49.328 29.9999L58.742 39.4141" stroke="#016287" stroke-width="3" stroke-miterlimit="10" stroke-linecap="round" stroke-linejoin="round"/>
<path d="M2.25781 58.2422L11.6718 48.8282L2.25781 39.4141" stroke="#016287" stroke-width="3" stroke-miterlimit="10" stroke-linecap="round" stroke-linejoin="round"/>
<path d="M21.0859 1.758L30.4999 11.172L39.9139 1.758" stroke="#016287" stroke-width="3" stroke-miterlimit="10" stroke-linecap="round" stroke-linejoin="round"/>
<path d="M2.25781 39.4141L11.6718 30.0001L2.25781 20.586" stroke="#016287" stroke-width="3" stroke-miterlimit="10" stroke-linecap="round" stroke-linejoin="round"/>
<path d="M30.4999 30.0001L39.9139 20.5861L21.0859 1.75802L11.6718 11.172L30.4999 30.0001Z" stroke="#016287" stroke-width="3" stroke-miterlimit="10" stroke-linecap="round" stroke-linejoin="round"/>
<path d="M39.9139 39.4141L58.742 20.586L49.328 11.172L30.4999 30.0001L39.9139 39.4141Z" stroke="#016287" stroke-width="3" stroke-miterlimit="10" stroke-linecap="round" stroke-linejoin="round"/>
<path d="M39.9139 58.2422L30.4999 48.8282L21.0859 58.2422M39.9139 58.2422L49.328 48.8282L30.4999 30.0001L21.0859 39.4141L39.9139 58.2422Z" stroke="#016287" stroke-width="3" stroke-miterlimit="10" stroke-linecap="round" stroke-linejoin="round"/>
<path d="M11.6718 48.8281L30.4999 30L21.0859 20.586L2.25781 39.4141L11.6718 48.8281Z" stroke="#016287" stroke-width="3" stroke-miterlimit="10" stroke-linecap="round" stroke-linejoin="round"/>
<path d="M2.25781 1.758L11.6718 11.172L21.0859 1.758" stroke="#016287" stroke-width="3" stroke-miterlimit="10" stroke-linecap="round" stroke-linejoin="round"/>
<path d="M11.6718 30.0001L21.0859 20.5861L2.25781 1.75802V20.5861L11.6718 30.0001Z" stroke="#016287" stroke-width="3" stroke-miterlimit="10" stroke-linecap="round" stroke-linejoin="round"/>
<path d="M21.0859 58.2422L30.4999 48.8282L21.0859 39.4141L2.25781 58.2422H21.0859Z" stroke="#016287" stroke-width="3" stroke-miterlimit="10" stroke-linecap="round" stroke-linejoin="round"/>
<path d="M58.742 58.2422V39.4141L49.328 30.0001L39.9139 39.4141L58.742 58.2422Z" stroke="#016287" stroke-width="3" stroke-miterlimit="10" stroke-linecap="round" stroke-linejoin="round"/>
<path d="M58.742 1.75795L49.328 11.1719L58.742 20.5861" stroke="#016287" stroke-width="3" stroke-miterlimit="10" stroke-linecap="round" stroke-linejoin="round"/>
<path d="M58.742 58.2422L49.328 48.8282L39.9139 58.2422" stroke="#016287" stroke-width="3" stroke-miterlimit="10" stroke-linecap="round" stroke-linejoin="round"/>
</svg>
