<svg width="161" height="68" viewBox="0 0 161 68" fill="none" xmlns="http://www.w3.org/2000/svg">
<path d="M36.8375 56.7928C49.5328 56.7928 59.8245 46.4799 59.8245 33.7583C59.8245 21.0368 49.5328 10.7239 36.8375 10.7239C24.1421 10.7239 13.8505 21.0368 13.8505 33.7583C13.8505 46.4799 24.1421 56.7928 36.8375 56.7928Z" fill="#C3EEFC"/>
<path d="M12.2003 40.3361L30.6008 26.7489L62.9336 50.6223C62.9336 50.6223 54.9043 57.4494 47.2025 58.802C39.5007 60.1547 19.1103 55.6742 19.1103 55.6742L12.2003 40.3361Z" fill="white"/>
<path d="M30.6038 39.248H26.6028V43.2572H30.6038V39.248Z" fill="#016287"/>
<path d="M35.3602 39.248H31.3591V43.2572H35.3602V39.248Z" fill="#016287"/>
<path d="M30.6038 44.0172H26.6028V48.0265H30.6038V44.0172Z" fill="#016287"/>
<path d="M35.3602 44.0172H31.3591V48.0265H35.3602V44.0172Z" fill="#016287"/>
<path d="M63.3007 48.3183L61.6111 50.6284L30.983 28.1016L8.0658 44.9534V41.4031L30.983 24.5543L63.3007 48.3183Z" fill="#016287"/>
<path d="M64.6809 51.3366C61.8928 55.8774 58.1063 59.7199 53.6106 62.5709C49.1148 65.4219 44.0285 67.2061 38.7397 67.7874C33.451 68.3686 28.0997 67.7315 23.0941 65.9247C18.0885 64.1179 13.561 61.1891 9.85703 57.3618C6.15305 53.5346 3.37051 48.91 1.72176 43.8411C0.0730111 38.7721 -0.39838 33.3927 0.343561 28.1134C1.0855 22.8341 3.02117 17.7944 6.00284 13.3788C8.98452 8.96333 12.9334 5.2887 17.5481 2.63538C17.9516 2.40436 20.1902 6.34375 19.1498 7.39547C16.192 10.3752 13.8556 13.915 12.2766 17.8085C10.6976 21.702 9.90764 25.8715 9.95267 30.074C9.9977 34.2765 10.8769 38.4281 12.5389 42.2867C14.201 46.1454 16.6127 49.6341 19.6336 52.5495C22.6545 55.4649 26.2242 57.7487 30.1346 59.268C34.0451 60.7873 38.2182 61.5116 42.4108 61.3987C46.6034 61.2858 50.7316 60.338 54.555 58.6105C58.3784 56.883 61.8206 54.4104 64.6809 51.3366Z" fill="#049DC6"/>
<path d="M67.4958 42.8256C65.8727 47.4117 63.215 51.5604 59.7297 54.9486C56.2444 58.3368 52.0256 60.8731 47.4019 62.3598C42.7782 63.8465 37.8744 64.2436 33.0724 63.5201C28.2705 62.7966 23.7 60.9721 19.7171 58.1886C15.7341 55.4051 12.4461 51.7378 10.1092 47.4724C7.77234 43.207 6.44964 38.4585 6.24414 33.5969C6.03865 28.7353 6.95591 23.8918 8.92448 19.4437C10.893 14.9955 13.8598 11.0627 17.5936 7.95172C17.5936 7.95172 19.6715 11.5507 18.9526 12.6784C16.8922 15.8726 15.4879 19.4463 14.8219 23.1906C14.1558 26.935 14.2414 30.7748 15.0735 34.4857C15.9056 38.1965 17.4676 41.7039 19.6682 44.8027C21.8688 47.9016 24.6638 50.5298 27.8898 52.5336C31.1158 54.5375 34.7081 55.8768 38.4566 56.4733C42.2052 57.0697 46.0348 56.9114 49.7216 56.0075C53.4084 55.1036 56.8784 53.4723 59.9287 51.209C62.979 48.9456 65.5484 46.0956 67.4867 42.8256H67.4958Z" fill="#2CB1EF"/>
<path d="M20.988 0.851102L19.5593 1.54414L23.9941 10.7239L25.4228 10.0308L20.988 0.851102ZM19.1103 1.76604L18.6007 2.01225L23.0295 11.195L23.5421 10.9427L19.1103 1.76604ZM26.9425 5.73278C26.9466 5.40465 27.0607 5.08743 27.2665 4.83215C27.4722 4.57688 27.7577 4.3984 28.077 4.32542C28.9868 4.10047 29.875 3.79532 30.7312 3.41353C32.2176 2.69313 33.4431 1.18242 33.9618 0.474185C33.9944 0.437251 34.0156 0.391529 34.0226 0.342678C34.0296 0.293827 34.0221 0.243994 34.0011 0.199348C33.9801 0.154702 33.9465 0.117203 33.9045 0.0914956C33.8625 0.0657877 33.8138 0.0529993 33.7646 0.0547137C32.9062 0.00911895 31.0346 0.0182379 29.4572 0.77815C28.652 1.22163 27.8947 1.74724 27.1973 2.34661C26.6179 2.81168 25.7989 2.83295 25.3348 2.40132L22.7504 0L21.446 0.632247L25.8748 9.81199L27.1791 9.17974L26.9425 5.73278ZM31.0194 1.65053C30.9284 1.46207 31.1286 1.17634 31.4714 1.00916C31.8141 0.841983 32.166 0.86326 32.257 1.05172C32.348 1.24018 32.1539 1.51982 31.802 1.69308C31.4501 1.86634 31.1074 1.83899 31.0194 1.65053Z" fill="#016287"/>
<path d="M18.2003 2.20679L22.629 11.3865L20.5421 12.4018C18.5491 13.3745 17.718 14.3684 17.4177 16.1101L16.9869 14.1192L16.8626 14.9794C16.8626 14.9794 16.3954 13.7635 16.4895 13.2134L16.2195 13.645C16.2195 13.645 15.176 11.8577 15.3095 10.7512L15.1366 11.4321C15.1366 11.4321 14.4814 9.65697 15.7888 8.27393C15.7888 8.27393 14.6088 9.14631 14.5329 10.1798C14.5329 10.1798 14.0021 8.54141 14.175 8.15842L13.8717 8.80586C13.8717 8.80586 13.4773 7.45018 14.0901 6.60516C13.8102 6.82179 13.5994 7.11543 13.4834 7.45018C13.4834 7.45018 12.901 4.77529 18.2003 2.20679Z" fill="#016287"/>
<path d="M55.1925 43.2573L46.2592 37.7859V30.8646H55.1925V43.2573Z" fill="#016287"/>
<path d="M21.44 23.5755C24.1606 23.5755 26.3662 21.3654 26.3662 18.6391C26.3662 15.9128 24.1606 13.7027 21.44 13.7027C18.7193 13.7027 16.5137 15.9128 16.5137 18.6391C16.5137 21.3654 18.7193 23.5755 21.44 23.5755Z" fill="#2CB1EF"/>
<path d="M61.0256 44.388C63.0444 44.388 64.6809 42.7481 64.6809 40.7252C64.6809 38.7023 63.0444 37.0624 61.0256 37.0624C59.0069 37.0624 57.3704 38.7023 57.3704 40.7252C57.3704 42.7481 59.0069 44.388 61.0256 44.388Z" fill="#2CB1EF"/>
<path d="M24.7039 15.3685C25.6236 15.3685 26.3692 14.6213 26.3692 13.6997C26.3692 12.7781 25.6236 12.0309 24.7039 12.0309C23.7842 12.0309 23.0386 12.7781 23.0386 13.6997C23.0386 14.6213 23.7842 15.3685 24.7039 15.3685Z" fill="#2CB1EF"/>
<path d="M77.682 51.1087C77.4456 51.4308 77.1328 51.6888 76.772 51.8595C76.3317 52.0609 75.8513 52.1586 75.3675 52.1452H74.2573L73.8023 54.7137H72.4615L73.6415 48.0629H76.0864C76.6367 48.0242 77.1825 48.1849 77.6244 48.5158C77.7977 48.6657 77.935 48.8529 78.0259 49.0635C78.1168 49.274 78.1589 49.5025 78.1491 49.7317C78.1494 49.8654 78.1362 49.9988 78.1097 50.1299C78.0405 50.4836 77.8944 50.8178 77.682 51.1087ZM76.3503 50.8321C76.5647 50.6444 76.7064 50.3873 76.7508 50.1056C76.7651 50.0243 76.7712 49.9418 76.769 49.8594C76.769 49.3578 76.4656 49.1055 75.8377 49.1055H74.7912L74.4393 51.0965H75.4949C75.8024 51.1136 76.1059 51.0198 76.3503 50.8321Z" fill="#016287"/>
<path d="M84.0612 53.431H81.41L80.7548 54.7137H79.3564L82.9206 48.0265H84.4707L85.684 54.6863H84.2765L84.0612 53.431ZM83.8913 52.3944L83.4181 49.5736L81.953 52.3944H83.8913Z" fill="#016287"/>
<path d="M90.6042 48.0477L89.4333 54.7137H88.0926L89.2726 48.0629L90.6042 48.0477Z" fill="#016287"/>
<path d="M97.945 54.7137H96.6042L94.4081 50.1542L93.5981 54.7137H92.2574L93.4283 48.0265H94.7599L96.9652 52.6011L97.7812 48.0265H99.1128L97.945 54.7137Z" fill="#016287"/>
<path d="M106.472 48.0477L106.281 49.0964H104.524L103.526 54.7137H102.186L103.175 49.1116H101.406L101.594 48.0629L106.472 48.0477Z" fill="#016287"/>
<path d="M110.285 48.0477L109.117 54.7137H107.776L108.953 48.0629L110.285 48.0477Z" fill="#016287"/>
<path d="M117.626 54.7137H116.285L114.089 50.1542L113.279 54.7137H111.932L113.118 48.0265H114.45L116.655 52.6011L117.465 48.0265H118.796L117.626 54.7137Z" fill="#016287"/>
<path d="M121.475 49.6071C121.851 49.097 122.34 48.6809 122.904 48.3912C123.459 48.104 124.075 47.9549 124.699 47.9566C125.36 47.9296 126.01 48.1219 126.55 48.5037C126.792 48.6887 126.994 48.9203 127.145 49.185C127.296 49.4497 127.393 49.7421 127.429 50.0448H125.913C125.822 49.7782 125.641 49.5522 125.4 49.4065C125.123 49.25 124.808 49.1742 124.49 49.1876C124.11 49.1846 123.735 49.2754 123.398 49.4521C123.058 49.6334 122.768 49.8953 122.552 50.215C122.315 50.5612 122.159 50.9557 122.094 51.3701C122.062 51.5435 122.046 51.7196 122.048 51.8959C122.036 52.1193 122.071 52.3428 122.15 52.5521C122.229 52.7614 122.35 52.952 122.506 53.1118C122.679 53.266 122.879 53.3846 123.098 53.4608C123.316 53.5369 123.547 53.5692 123.777 53.5556C124.249 53.5648 124.711 53.4209 125.094 53.1452C125.481 52.8593 125.774 52.4647 125.937 52.0114H123.653L123.826 51.0023H127.42L127.211 52.1634C127.03 52.6409 126.758 53.0785 126.41 53.4522C126.044 53.8483 125.605 54.1702 125.118 54.4006C124.615 54.638 124.066 54.7595 123.51 54.7562C122.994 54.7669 122.483 54.6489 122.024 54.4128C121.607 54.1955 121.261 53.8633 121.026 53.4553C120.781 53.0221 120.657 52.5306 120.668 52.0327C120.67 51.8105 120.69 51.5888 120.729 51.3701C120.833 50.731 121.089 50.1264 121.475 49.6071Z" fill="#016287"/>
<path d="M138.79 53.1088L140.121 54.6985H138.486L137.88 53.9842C137.2 54.5273 136.355 54.8202 135.486 54.814C134.924 54.8447 134.367 54.6852 133.906 54.3611C133.716 54.214 133.565 54.0235 133.464 53.8056C133.363 53.5877 133.316 53.3487 133.326 53.1088C133.324 52.5996 133.506 52.1069 133.839 51.7227C134.21 51.2926 134.681 50.9606 135.21 50.7561C135.018 50.4903 134.913 50.1721 134.907 49.8442C134.903 49.4902 135.002 49.1427 135.192 48.8441C135.388 48.5471 135.663 48.3112 135.987 48.1632C136.349 47.9953 136.744 47.9122 137.142 47.9201C137.579 47.8911 138.011 48.0242 138.356 48.294C138.493 48.4105 138.602 48.556 138.676 48.72C138.75 48.884 138.787 49.0624 138.783 49.2423C138.783 49.3321 138.774 49.4217 138.756 49.5098H137.461C137.467 49.4716 137.467 49.4326 137.461 49.3943C137.463 49.3322 137.452 49.2705 137.428 49.2133C137.403 49.1561 137.367 49.1048 137.321 49.063C137.216 48.9752 137.082 48.9306 136.945 48.9384C136.849 48.9359 136.754 48.9527 136.664 48.9877C136.574 49.0226 136.493 49.0751 136.424 49.142C136.356 49.2065 136.302 49.2844 136.266 49.3707C136.23 49.4571 136.212 49.55 136.214 49.6436C136.217 49.7845 136.252 49.9229 136.317 50.0478C136.41 50.2249 136.518 50.3928 136.642 50.5494L138.04 52.2151L138.098 52.13L138.802 51.2181H140.188L139.314 52.3914C139.138 52.671 138.962 52.9051 138.79 53.1088ZM137.194 53.1544L135.844 51.5373C135.525 51.6585 135.239 51.852 135.007 52.1026C134.811 52.3144 134.703 52.5923 134.704 52.8808C134.7 52.9963 134.722 53.1112 134.769 53.2166C134.817 53.322 134.888 53.4151 134.977 53.4887C135.189 53.6525 135.452 53.7345 135.72 53.7197C136.262 53.7115 136.785 53.5112 137.194 53.1544Z" fill="#016287"/>
<path d="M83.9216 57.6378C84.0945 57.788 84.2312 57.9753 84.3215 58.1859C84.4119 58.3964 84.4535 58.6247 84.4434 58.8537C84.4432 58.9778 84.4341 59.1017 84.4161 59.2245C84.3373 59.6656 84.1342 60.0749 83.8306 60.4039C83.4945 60.7706 83.0558 61.027 82.5718 61.1395L83.685 63.8387H82.135L81.1461 61.2459H80.5091L80.051 63.8326H78.7133L79.8903 57.1819H82.3807C82.9328 57.139 83.4813 57.3013 83.9216 57.6378ZM83.0662 59.0148C83.0727 58.91 83.0556 58.805 83.0162 58.7077C82.9769 58.6104 82.9162 58.5232 82.8387 58.4525C82.6389 58.3038 82.3922 58.2325 82.1441 58.2518H81.0308L80.6881 60.2428H81.8013C82.1082 60.2585 82.4106 60.1637 82.6537 59.9753C82.8704 59.7867 83.0134 59.5271 83.0571 59.2428C83.0632 59.1273 83.0662 59.0513 83.0662 59.0148Z" fill="#016287"/>
<path d="M88.6568 58.2123L88.3534 59.9389H90.586L90.4071 60.9663H88.1715L87.8681 62.7688H90.3949L90.2038 63.8266H86.3271L87.5071 57.1637H91.3565L91.1775 58.2123H88.6568Z" fill="#016287"/>
<path d="M98.5851 63.8326H97.2443L95.0481 59.2732L94.2382 63.8326H92.8975L94.0775 57.1697H95.4091L97.6144 61.7444L98.4243 57.1697H99.7529L98.5851 63.8326Z" fill="#016287"/>
<path d="M103.047 63.5287C102.629 63.3002 102.284 62.9563 102.055 62.5377C101.814 62.0923 101.693 61.5915 101.703 61.0848C101.691 60.3664 101.866 59.6572 102.21 59.0269C102.539 58.4283 103.026 57.9319 103.617 57.5922C104.233 57.2418 104.93 57.0624 105.638 57.0724C106.156 57.0617 106.668 57.183 107.127 57.425C107.546 57.653 107.891 57.9957 108.122 58.4129C108.36 58.8561 108.48 59.3534 108.471 59.8568C108.484 60.5806 108.31 61.2956 107.967 61.9329C107.642 62.5338 107.154 63.031 106.56 63.3676C105.94 63.7178 105.239 63.8962 104.527 63.8843C104.012 63.8948 103.502 63.7724 103.047 63.5287ZM105.977 62.2946C106.342 62.0518 106.635 61.7146 106.824 61.3188C107.026 60.9011 107.129 60.4425 107.127 59.9784C107.138 59.7568 107.105 59.5354 107.03 59.3267C106.955 59.118 106.839 58.9263 106.69 58.7625C106.529 58.6094 106.338 58.4909 106.129 58.4141C105.921 58.3373 105.699 58.3038 105.477 58.3157C105.033 58.307 104.598 58.4331 104.227 58.6774C103.862 58.9167 103.569 59.2522 103.381 59.647C103.178 60.0623 103.074 60.5191 103.077 60.9814C103.065 61.2054 103.096 61.4297 103.17 61.6415C103.244 61.8533 103.359 62.0483 103.508 62.2155C103.669 62.3704 103.859 62.4906 104.068 62.5685C104.277 62.6464 104.499 62.6804 104.722 62.6684C105.166 62.6766 105.603 62.5529 105.977 62.3128V62.2946Z" fill="#016287"/>
<path d="M112.484 57.1758L113.37 62.4618L116.127 57.1758H117.544L113.94 63.8326H112.323L111.058 57.1819L112.484 57.1758Z" fill="#016287"/>
<path d="M122.983 62.559H120.328L119.673 63.8326H118.275L121.839 57.1697H123.389L124.602 63.8326H123.195L122.983 62.559ZM122.81 61.5195L122.336 58.6987L120.871 61.5195H122.81Z" fill="#016287"/>
<path d="M132.708 57.1758L132.516 58.2214H130.76L129.771 63.8326H128.431L129.419 58.2275H127.651L127.839 57.1819L132.708 57.1758Z" fill="#016287"/>
<path d="M136.53 57.1758L135.362 63.8326H134.021L135.198 57.1819L136.53 57.1758Z" fill="#016287"/>
<path d="M139.815 63.5287C139.396 63.3002 139.052 62.9563 138.823 62.5377C138.582 62.0923 138.46 61.5915 138.471 61.0848C138.46 60.3666 138.635 59.6577 138.978 59.0269C139.306 58.4283 139.793 57.9319 140.385 57.5922C141 57.2418 141.698 57.0624 142.405 57.0724C142.924 57.0617 143.436 57.183 143.895 57.425C144.313 57.653 144.658 57.9957 144.89 58.4129C145.129 58.8559 145.25 59.3532 145.242 59.8568C145.253 60.5809 145.079 61.2959 144.735 61.9329C144.409 62.5338 143.922 63.031 143.328 63.3676C142.708 63.7178 142.006 63.8962 141.295 63.8843C140.779 63.8948 140.27 63.7724 139.815 63.5287ZM142.745 62.2946C143.11 62.0518 143.402 61.7146 143.591 61.3188C143.794 60.9014 143.898 60.4427 143.895 59.9784C143.906 59.7568 143.873 59.5354 143.798 59.3267C143.723 59.118 143.607 58.9263 143.458 58.7625C143.297 58.6094 143.106 58.4909 142.897 58.4141C142.689 58.3373 142.467 58.3038 142.245 58.3157C141.801 58.307 141.365 58.4331 140.995 58.6774C140.63 58.9176 140.337 59.2528 140.149 59.647C139.946 60.0623 139.842 60.5191 139.845 60.9814C139.832 61.2057 139.864 61.4303 139.938 61.6422C140.013 61.854 140.129 62.049 140.279 62.2155C140.439 62.371 140.629 62.4916 140.838 62.5695C141.047 62.6475 141.27 62.6812 141.492 62.6684C141.936 62.676 142.372 62.5523 142.745 62.3128V62.2946Z" fill="#016287"/>
<path d="M152.855 63.8326H151.515L149.318 59.2732L148.512 63.8326H147.171L148.348 57.1697H149.679L151.885 61.7444L152.695 57.1697H154.026L152.855 63.8326Z" fill="#016287"/>
<path d="M156.559 63.4405C156.353 63.3004 156.186 63.1099 156.073 62.8871C155.961 62.6643 155.907 62.4164 155.916 62.1669C155.916 62.1092 155.916 62.024 155.937 61.9085H157.296C157.28 62.0274 157.29 62.1485 157.327 62.2627C157.364 62.3769 157.426 62.4813 157.509 62.5681C157.608 62.6581 157.725 62.7271 157.851 62.771C157.978 62.8148 158.112 62.8327 158.246 62.8235C158.517 62.8388 158.785 62.7675 159.013 62.6198C159.105 62.5529 159.178 62.4642 159.227 62.3618C159.275 62.2594 159.298 62.1465 159.292 62.0332C159.293 61.9215 159.265 61.8114 159.212 61.7131C159.159 61.6149 159.082 61.5315 158.989 61.4708C158.703 61.2833 158.398 61.1273 158.079 61.0058C157.768 60.876 157.464 60.7299 157.169 60.5681C156.927 60.4306 156.719 60.2392 156.562 60.0088C156.384 59.7394 156.295 59.4199 156.31 59.0969C156.301 58.7136 156.412 58.337 156.629 58.0208C156.848 57.7084 157.151 57.4641 157.502 57.3156C157.904 57.1431 158.337 57.0581 158.773 57.0664C159.19 57.0586 159.603 57.1383 159.987 57.3004C160.308 57.436 160.58 57.6674 160.766 57.9631C160.944 58.2646 161.021 58.6147 160.988 58.9631H159.571V58.8598C159.574 58.7618 159.555 58.6644 159.515 58.575C159.475 58.4855 159.416 58.4062 159.341 58.343C159.155 58.1995 158.923 58.1283 158.689 58.1424C158.432 58.1316 158.178 58.2052 157.967 58.3522C157.878 58.4176 157.806 58.5039 157.758 58.6035C157.71 58.7031 157.687 58.813 157.691 58.9236C157.689 59.0774 157.745 59.2262 157.848 59.34C157.957 59.4627 158.087 59.5655 158.231 59.644C158.385 59.7291 158.604 59.8385 158.889 59.9723C159.201 60.1106 159.505 60.2669 159.799 60.4404C160.038 60.5916 160.244 60.7889 160.405 61.021C160.58 61.2832 160.669 61.5934 160.66 61.9085C160.667 62.2713 160.561 62.6273 160.357 62.9268C160.136 63.2368 159.834 63.4789 159.483 63.6259C159.067 63.8029 158.619 63.8889 158.167 63.8782C157.599 63.9 157.038 63.7472 156.559 63.4405Z" fill="#016287"/>
<path d="M89.7488 12.3835C89.8913 11.2507 90.2965 10.1671 90.9318 9.21926C91.5548 8.26015 92.3711 7.4422 93.3282 6.81793C94.2998 6.19475 95.3948 5.79028 96.5375 5.63247C97.7909 5.46502 99.0661 5.64697 100.223 6.15833L95.8004 38.0746C95.6388 39.0012 95.23 39.8667 94.6174 40.5793C93.9167 41.4125 93.0695 42.11 92.1179 42.6372C91.0178 43.2495 89.8403 43.7107 88.6174 44.008C87.2482 44.3488 85.842 44.5172 84.4313 44.5096H74.5364L75.2735 39.2358H82.2745C83.224 39.2666 84.165 39.0487 85.0046 38.6035C85.7407 38.1821 86.1451 37.6896 86.2179 37.1263L89.7488 12.3835Z" fill="#016287"/>
<path d="M130.299 21.1104C131.231 20.0463 131.843 18.7394 132.065 17.3412L132.532 13.9368H129.222L131.922 9.68128C131.598 9.25147 131.218 8.86797 130.791 8.54141H128.697L128.861 7.40763C128.29 7.16486 127.704 6.96174 127.105 6.7997C125.772 6.45692 124.401 6.28935 123.025 6.30119H103.611L98.2817 44.5005C99.5961 45.009 101.02 45.1641 102.413 44.9503C103.638 44.7332 104.778 44.1773 105.704 43.3454C106.715 42.4111 107.514 41.2711 108.049 40.0018C108.704 38.4593 109.153 36.8375 109.387 35.1779L110.6 26.4206H118.605C119.431 26.3861 120.245 26.6266 120.92 27.1046C121.527 27.5666 121.748 28.0772 121.605 28.6244L119.552 44.5005H129.222L131.17 30.2141C131.277 29.5297 131.26 28.8314 131.118 28.1532C130.973 27.4822 130.695 26.8473 130.299 26.2869C129.846 25.6613 129.262 25.1426 128.588 24.7671C127.719 24.2772 126.778 23.9284 125.801 23.7336C127.837 23.1297 129.337 22.2553 130.299 21.1104ZM122.109 19.0799C122.039 19.6088 121.624 20.083 120.871 20.5055C120.107 20.9279 119.247 21.1457 118.375 21.1377H111.274L112.645 11.5507H119.591C120.467 11.5098 121.334 11.7482 122.067 12.2315C122.697 12.6875 122.978 13.1799 122.907 13.7088L122.109 19.0799Z" fill="#016287"/>
<path d="M131.37 12.7665L134.792 7.38635H130.053L130.897 1.51982H140.634L139.791 7.37419L134.109 12.7665H131.37Z" fill="#016287"/>
<path d="M159.735 38.947C159.614 39.764 159.251 40.5256 158.692 41.1325C158.037 41.8705 157.259 42.4878 156.392 42.9563C155.383 43.5109 154.305 43.929 153.186 44.1995C151.944 44.5058 150.67 44.6579 149.391 44.6524H142.281C141.053 44.6632 139.829 44.5109 138.641 44.1995C137.625 43.9387 136.656 43.5214 135.768 42.9624C135.029 42.5096 134.411 41.8837 133.966 41.1386C133.579 40.4802 133.421 39.7113 133.518 38.9531L134.039 35.1991H142.718L142.339 37.9561C142.276 38.4951 142.537 38.9389 143.121 39.2875C143.812 39.6607 144.591 39.8413 145.375 39.8103H147.699C148.528 39.8362 149.351 39.6566 150.095 39.2875C150.741 38.9379 151.114 38.4941 151.208 37.9561L151.642 35.2204C151.672 34.7158 151.395 34.272 150.811 33.889C150.174 33.494 149.436 33.2963 148.687 33.3206H143.804C142.576 33.3341 141.351 33.1818 140.164 32.8677C139.171 32.6106 138.226 32.1939 137.367 31.6336C136.652 31.1735 136.058 30.548 135.635 29.8098C135.257 29.139 135.107 28.3636 135.207 27.6L135.541 23.846C135.656 23.0087 136.028 22.228 136.605 21.6119C137.279 20.875 138.073 20.2583 138.953 19.7881C139.975 19.2358 141.062 18.817 142.19 18.5419C143.432 18.2366 144.706 18.0855 145.985 18.092H152.34C153.547 18.0807 154.749 18.232 155.916 18.5419C156.908 18.8013 157.853 19.219 158.713 19.779C159.435 20.2463 160.043 20.8694 160.493 21.6028C160.899 22.2725 161.065 23.06 160.967 23.8369C160.96 24.1333 160.887 24.4242 160.751 24.6876C160.615 24.951 160.421 25.1799 160.184 25.3568C159.62 25.7088 158.973 25.9059 158.309 25.9282C157.39 25.9852 156.467 25.929 155.561 25.761C154.514 25.5868 153.375 25.3568 152.146 25.071L152.191 24.8826C152.254 24.3456 152.009 23.8785 151.457 23.4813C150.804 23.0508 150.032 22.838 149.252 22.8734H147.686C146.872 22.8659 146.07 23.0757 145.363 23.4813C144.665 23.8764 144.301 24.3435 144.271 24.8826L143.937 26.0224C143.907 26.5635 144.192 27.0286 144.793 27.4268C145.426 27.8303 146.165 28.0366 146.916 28.0195H151.669C152.897 28.0089 154.121 28.1612 155.309 28.4724C156.318 28.7298 157.28 29.1463 158.158 29.7065C158.895 30.1751 159.512 30.8101 159.96 31.5607C160.363 32.2399 160.53 33.0345 160.433 33.8191L159.735 38.947Z" fill="#016287"/>
</svg>
