<svg width="60" height="60" viewBox="0 0 60 60" fill="none" xmlns="http://www.w3.org/2000/svg">
<path d="M54 19.3071V8.00005C54 6.89548 53.1046 6.00005 52 6.00005H47C45.8954 6.00005 45 6.89548 45 8.00005V11.8411L31.287 0.465051C30.5408 -0.154366 29.4592 -0.154366 28.713 0.465051L0.729 23.6801C0.308683 24.0283 0.0477221 24.5322 0.00587221 25.0765C-0.0359777 25.6207 0.144869 26.1586 0.507 26.5671L3 29.3801C3.71947 30.2017 4.96402 30.2968 5.8 29.5941L6 29.4221V58.0001C6 59.1046 6.89543 60.0001 8 60.0001H52C53.1046 60.0001 54 59.1046 54 58.0001V29.4221L54.207 29.5941C55.0419 30.2922 56.2812 30.1972 57 29.3801L59.491 26.5661C59.8531 26.1578 60.0339 25.6201 59.9921 25.076C59.9502 24.5319 59.6893 24.0281 59.269 23.6801L54 19.3071ZM47 8.00005H52V17.6481L47 13.5001V8.00005ZM52 58.0001H8V27.7631L30 9.51305L52 27.7631V58.0001ZM55.505 28.0541C55.4992 28.0598 55.4898 28.0598 55.484 28.0541L30.639 7.44405C30.2686 7.13633 29.7314 7.13633 29.361 7.44405L4.5 28.0541L2.006 25.2191L30.009 2.00005L58 25.2411L55.505 28.0541Z" fill="#016287"/>
<path d="M27.977 22.2531C26.3249 20.5905 24.0847 19.6451 21.741 19.6211C20.9232 19.6293 20.1845 20.1116 19.848 20.8571C19.5318 21.6049 19.7029 22.47 20.28 23.0411L22.68 25.4341L22.147 29.1461L18.435 29.6791L16.042 27.2791C15.4705 26.7026 14.6057 26.5319 13.858 26.8481C13.0975 27.1668 12.6079 27.9166 12.622 28.7411C12.6539 31.3398 13.8117 33.7967 15.7955 35.4756C17.7792 37.1546 20.3938 37.8902 22.962 37.4921L22.475 38.9451C22.262 39.5794 21.7677 40.0796 21.136 40.3001C20.5207 40.5007 19.9613 40.8432 19.503 41.3001L13.463 47.3401C11.5302 49.2715 11.4584 52.3815 13.3 54.4001C14.2234 55.4079 15.5223 55.9891 16.889 56.0061H17.017C18.4637 56.0052 19.8512 55.4322 20.877 54.4121L26.736 48.5431C27.1999 48.0923 27.5475 47.5357 27.749 46.9211C27.9633 46.286 28.4637 45.7886 29.1 45.5781L30.9 44.9781L31.18 45.2581C30.6604 47.8775 31.3318 50.5923 33.0124 52.6675C34.6929 54.7428 37.2089 55.9638 39.879 56.0001H39.9C40.7162 56.0038 41.4541 55.515 41.769 54.7621C42.0852 54.0149 41.914 53.1505 41.337 52.5801L38.937 50.1861L39.469 46.4731L43.182 45.9411L45.576 48.3411C46.1461 48.9186 47.0109 49.0899 47.758 48.7731C48.5205 48.4553 49.0125 47.7051 49 46.8791C48.9642 44.2081 47.7429 41.6913 45.6669 40.0104C43.5908 38.3295 40.875 37.6585 38.255 38.1791L36.183 36.1071L38.707 33.5791L41.469 33.0231C42.0541 32.9135 42.561 32.5512 42.854 32.0331L45.793 26.7331C46.2279 25.9492 46.0908 24.9721 45.457 24.3381L43.697 22.5781C43.0647 21.9504 42.0934 21.8167 41.315 22.2501L36.025 25.1851C35.5036 25.4686 35.1351 25.9691 35.019 26.5511L34.462 29.3291L31.939 31.8601L30.439 30.3601C31.0199 27.4164 30.0968 24.3767 27.977 22.2531ZM35.85 30.7731C36.1486 30.4928 36.3518 30.1259 36.431 29.7241L36.985 26.9441L42.283 24.0001L44.046 25.7661L41.1 31.0601L38.3 31.6221C37.9172 31.7005 37.5655 31.8889 37.288 32.1641L34.769 34.7001L33.353 33.2841L35.85 30.7731ZM28.466 43.6801C27.2304 44.0937 26.2612 45.0641 25.849 46.3001C25.7466 46.6127 25.5695 46.8955 25.333 47.1241L19.463 53.0001C18.79 53.6607 17.8799 54.0235 16.937 54.0071C16.1171 54.0003 15.3363 53.6555 14.779 53.0541C13.6507 51.8233 13.6948 49.9213 14.879 48.7441L20.908 42.7151C21.1466 42.4777 21.4378 42.2998 21.758 42.1961C22.9862 41.7769 23.9508 40.8123 24.37 39.5841L24.657 38.7261L29.322 43.3911L28.466 43.6801ZM37.233 39.9871C37.4854 40.2395 37.8532 40.3382 38.198 40.2461C40.6115 39.6024 43.1852 40.2924 44.953 42.0571C46.2518 43.3467 46.9877 45.0978 47 46.9281L44.252 44.1741C44.0293 43.9507 43.7143 43.8454 43.402 43.8901L38.452 44.6001C38.0124 44.6631 37.667 45.0085 37.604 45.4481L36.894 50.3981C36.8493 50.7104 36.9546 51.0254 37.178 51.2481L39.9 54.0001C37.7443 53.9687 35.7236 52.945 34.423 51.2255C33.1225 49.5061 32.6875 47.2829 33.244 45.2001C33.3361 44.8553 33.2374 44.4875 32.985 44.2351L24.385 35.6351C24.1975 35.4475 23.9432 35.3422 23.678 35.3421C23.5912 35.3421 23.5048 35.3535 23.421 35.3761C21.0072 36.0183 18.434 35.3285 16.665 33.5651C15.3677 32.2749 14.6336 30.5237 14.623 28.6941L17.37 31.4481C17.5927 31.6715 17.9077 31.7768 18.22 31.7321L23.17 31.0221C23.6096 30.9591 23.955 30.6137 24.018 30.1741L24.728 25.2241C24.7727 24.9118 24.6674 24.5968 24.444 24.3741L21.715 21.6231C23.5371 21.6421 25.2784 22.3778 26.562 23.6711C28.3258 25.439 29.0154 28.0121 28.372 30.4251C28.2803 30.7696 28.379 31.1369 28.631 31.3891L37.233 39.9871Z" fill="#016287"/>
</svg>
