<svg width="14" height="15" viewBox="0 0 14 15" fill="none" xmlns="http://www.w3.org/2000/svg">
<path d="M11.96 8.16667C11.8133 8.16667 11.66 8.12 11.5133 8.08667C11.2163 8.02122 10.9245 7.93432 10.64 7.82667C10.3307 7.71415 9.99077 7.71999 9.68555 7.84307C9.38032 7.96614 9.1314 8.19776 8.98667 8.49333L8.84001 8.79333C8.19067 8.43212 7.594 7.98349 7.06667 7.46C6.54319 6.93268 6.09455 6.336 5.73334 5.68667L6.01334 5.5C6.30892 5.35528 6.54053 5.10635 6.6636 4.80113C6.78668 4.4959 6.79252 4.15594 6.68001 3.84667C6.57415 3.56161 6.4873 3.26986 6.42001 2.97333C6.38667 2.82667 6.36001 2.67333 6.34001 2.52C6.25905 2.05041 6.01309 1.62516 5.64642 1.32082C5.27975 1.01649 4.81647 0.853071 4.34001 0.859999H2.34001C2.05269 0.857301 1.76817 0.916541 1.50581 1.03369C1.24345 1.15083 1.00941 1.32313 0.819626 1.53885C0.62984 1.75458 0.488763 2.00866 0.405998 2.28381C0.323234 2.55895 0.300726 2.8487 0.340006 3.13333C0.695165 5.92625 1.97069 8.52125 3.96511 10.5084C5.95952 12.4956 8.55915 13.7617 11.3533 14.1067H11.6067C12.0983 14.1074 12.5729 13.927 12.94 13.6C13.1509 13.4114 13.3194 13.1801 13.4343 12.9215C13.5492 12.663 13.608 12.383 13.6067 12.1V10.1C13.5985 9.63692 13.4299 9.19103 13.1296 8.83844C12.8293 8.48585 12.4159 8.24842 11.96 8.16667V8.16667ZM12.2933 12.1667C12.2932 12.2613 12.2729 12.3549 12.2339 12.4411C12.1948 12.5273 12.1378 12.6042 12.0667 12.6667C11.9924 12.7313 11.9053 12.7796 11.8111 12.8083C11.7169 12.837 11.6177 12.8456 11.52 12.8333C9.02327 12.5132 6.70416 11.371 4.92848 9.58686C3.1528 7.80273 2.02161 5.47822 1.71334 2.98C1.70273 2.88234 1.71203 2.78355 1.74067 2.68959C1.76932 2.59563 1.81672 2.50846 1.88001 2.43333C1.94248 2.36222 2.01938 2.30523 2.10559 2.26614C2.1918 2.22706 2.28535 2.20679 2.38001 2.20667H4.38001C4.53504 2.20322 4.68642 2.25392 4.8081 2.35005C4.92978 2.44617 5.01415 2.58171 5.04667 2.73333C5.07334 2.91555 5.10667 3.09555 5.14667 3.27333C5.22369 3.62476 5.32618 3.97012 5.45334 4.30667L4.52001 4.74C4.4402 4.77661 4.36842 4.82863 4.30878 4.89306C4.24913 4.9575 4.20281 5.03307 4.17245 5.11546C4.1421 5.19785 4.12832 5.28542 4.1319 5.37315C4.13549 5.46087 4.15637 5.54703 4.19334 5.62666C5.15281 7.68184 6.80484 9.33387 8.86001 10.2933C9.02231 10.36 9.20437 10.36 9.36667 10.2933C9.44982 10.2636 9.52622 10.2176 9.59145 10.1581C9.65669 10.0986 9.70945 10.0267 9.74667 9.94667L10.16 9.01333C10.5047 9.13658 10.8564 9.23899 11.2133 9.32C11.3911 9.36 11.5711 9.39333 11.7533 9.42C11.905 9.45253 12.0405 9.53689 12.1366 9.65857C12.2328 9.78025 12.2835 9.93163 12.28 10.0867L12.2933 12.1667Z" fill="#4E4B66"/>
</svg>
