<svg width="60" height="60" viewBox="0 0 60 60" fill="none" xmlns="http://www.w3.org/2000/svg">
<g clip-path="url(#clip0_56_232)">
<path d="M12.5 12.5C12.5 11.1739 13.0268 9.90215 13.9645 8.96447C14.9021 8.02678 16.1739 7.5 17.5 7.5H42.5C43.8261 7.5 45.0979 8.02678 46.0355 8.96447C46.9732 9.90215 47.5 11.1739 47.5 12.5V17.5C47.5 18.8261 46.9732 20.0979 46.0355 21.0355C45.0979 21.9732 43.8261 22.5 42.5 22.5H17.5C16.1739 22.5 14.9021 21.9732 13.9645 21.0355C13.0268 20.0979 12.5 18.8261 12.5 17.5V12.5Z" stroke="#1E6287" stroke-width="3" stroke-linecap="round" stroke-linejoin="round"/>
<path d="M47.5 15H50C51.3261 15 52.5979 15.5268 53.5355 16.4645C54.4732 17.4021 55 18.6739 55 20C55 23.3152 53.683 26.4946 51.3388 28.8388C48.9946 31.183 45.8152 32.5 42.5 32.5H30V37.5" stroke="#1E6287" stroke-width="3" stroke-linecap="round" stroke-linejoin="round"/>
<path d="M25 40C25 39.337 25.2634 38.7011 25.7322 38.2322C26.2011 37.7634 26.837 37.5 27.5 37.5H32.5C33.163 37.5 33.7989 37.7634 34.2678 38.2322C34.7366 38.7011 35 39.337 35 40V50C35 50.663 34.7366 51.2989 34.2678 51.7678C33.7989 52.2366 33.163 52.5 32.5 52.5H27.5C26.837 52.5 26.2011 52.2366 25.7322 51.7678C25.2634 51.2989 25 50.663 25 50V40Z" stroke="#1E6287" stroke-width="3" stroke-linecap="round" stroke-linejoin="round"/>
</g>
<defs>
<clipPath id="clip0_56_232">
<rect width="60" height="60" fill="white"/>
</clipPath>
</defs>
</svg>
