<svg width="62" height="62" viewBox="0 0 62 62" fill="none" xmlns="http://www.w3.org/2000/svg">
<path d="M15.1498 61.0249C13.7429 61.0249 12.3356 60.4893 11.2646 59.4179L2.6066 50.7603C0.464466 48.6178 0.464466 45.1323 2.6066 42.9898L11.1802 34.4165C11.3417 34.2548 11.5657 34.1711 11.7935 34.1869C12.0216 34.2026 12.2314 34.3167 12.3691 34.499L13.1116 35.4829L44.6174 3.97703C47.4234 1.17077 51.6214 0.301279 55.3114 1.7616L60.383 3.96629C60.655 4.08477 60.8377 4.34543 60.8563 4.64179L60.9985 6.93243C61.0241 7.34663 60.7252 7.70998 60.3138 7.76432L58.9072 7.95041L59.0093 9.34122C59.0399 9.75828 58.7398 10.1273 58.3252 10.1823L56.9066 10.3703L57.0175 11.8827C57.0482 12.2998 56.748 12.6685 56.3335 12.7235L54.7559 12.9323L54.8523 14.4877C54.8779 14.9019 54.579 15.2653 54.1676 15.3196L52.761 15.5057L52.8631 16.8968C52.8937 17.3139 52.5936 17.6829 52.1791 17.7379L50.7604 17.9259L50.8713 19.4383C50.902 19.8554 50.6018 20.2241 50.1873 20.2791L48.6098 20.4879L48.7061 22.0433C48.7317 22.4575 48.4329 22.8209 48.0215 22.8752L46.6149 23.0613L46.7169 24.4524C46.7476 24.8695 46.4474 25.2385 46.0329 25.2935L44.6143 25.4815L44.7252 26.9936C44.7558 27.4107 44.4557 27.7794 44.0412 27.8344L42.4636 28.0435L42.5603 29.5989C42.5859 30.0132 42.287 30.3765 41.8756 30.4308L40.4687 30.6169L40.5708 32.0077C40.6014 32.4248 40.3013 32.7938 39.8867 32.8488L38.4681 33.0368L38.579 34.5492C38.6097 34.9663 38.3095 35.335 37.895 35.39L36.3175 35.5988L36.4141 37.1542C36.4397 37.5685 36.1408 37.9315 35.7295 37.9861L34.3229 38.1726L34.4246 39.5637C34.4552 39.9807 34.1551 40.3494 33.7406 40.4044L32.322 40.5924L32.4332 42.1045C32.4638 42.5219 32.1637 42.8906 31.7488 42.9456L30.171 43.1544L30.2677 44.7099C30.2936 45.1241 29.9944 45.4874 29.583 45.5418L28.1761 45.7282L28.2781 47.119C28.3088 47.536 28.0086 47.9051 27.5941 47.96L26.1752 48.148L26.2861 49.6602C26.3167 50.0775 26.0166 50.4462 25.602 50.5012L24.5502 50.6402L25.5404 51.9524C25.7777 52.2667 25.7471 52.7081 25.4684 52.9865L19.0366 59.4183C17.9643 60.4893 16.557 61.0249 15.1498 61.0249ZM11.6551 36.1754L3.72348 44.1067C2.19713 45.6334 2.19713 48.1167 3.72348 49.6434L12.3814 58.3014C13.9081 59.8277 16.3915 59.8274 17.9181 58.3014L23.864 52.3552L22.2552 50.2229C22.2542 50.2216 22.253 50.22 22.2517 50.2184L11.6551 36.1754ZM22.5335 47.9686L23.4561 49.191L24.6548 49.0324L24.5439 47.5202C24.5133 47.1029 24.8134 46.7341 25.2279 46.6792L26.6469 46.4912L26.5448 45.1004C26.5142 44.6833 26.8143 44.3143 27.2289 44.2593L28.644 44.072L28.5476 42.5229C28.5416 42.4394 28.5492 42.3579 28.5682 42.2802C28.5682 42.2799 28.5682 42.2796 28.5685 42.2789C28.5969 42.1627 28.6516 42.0556 28.7261 41.9655C28.7265 41.9655 28.7268 41.9652 28.7268 41.9646C28.801 41.8748 28.8949 41.8012 29.0029 41.7513C29.0035 41.751 29.0035 41.7513 29.0042 41.7507C29.0765 41.7172 29.1552 41.6941 29.238 41.684L30.8013 41.4771L30.6904 39.9649C30.6597 39.5476 30.9599 39.1788 31.3744 39.1239L32.793 38.9359L32.6913 37.5448C32.6607 37.1277 32.9608 36.759 33.3753 36.704L34.7905 36.5167L34.6941 34.9679C34.6881 34.8835 34.6957 34.8014 34.715 34.723C34.7146 34.7227 34.7153 34.7221 34.7153 34.7218C34.744 34.6061 34.7987 34.5 34.8723 34.4102C34.8726 34.4102 34.8732 34.4096 34.8732 34.4093C34.9478 34.3192 35.0423 34.2453 35.151 34.1954C35.1516 34.1951 35.1519 34.1951 35.1522 34.1948C35.2243 34.1619 35.3023 34.1391 35.3841 34.129L36.9475 33.9221L36.8366 32.4096C36.8059 31.9926 37.1061 31.6239 37.5206 31.5689L38.9392 31.3809L38.8372 29.9901C38.8065 29.5727 39.1067 29.204 39.5212 29.149L40.9363 28.9617L40.84 27.4135C40.8336 27.3279 40.8418 27.2445 40.8614 27.1652C40.8618 27.1649 40.8618 27.1646 40.8618 27.1639C40.8911 27.0477 40.9464 26.9412 41.0213 26.8515C41.0216 26.8515 41.0226 26.8508 41.0223 26.8502C41.0946 26.7636 41.1862 26.6922 41.2911 26.6426C41.2911 26.6426 41.2924 26.6423 41.2921 26.642C41.3657 26.6075 41.4459 26.5835 41.5306 26.5734L43.0936 26.3665L42.9827 24.854C42.9521 24.437 43.2522 24.0683 43.6668 24.0133L45.0854 23.8253L44.9833 22.4345C44.9527 22.0174 45.2528 21.6484 45.6673 21.5934L47.0825 21.4061L46.9864 19.8566C46.9804 19.7742 46.988 19.6933 47.0063 19.6165C47.006 19.6162 47.006 19.6159 47.0067 19.6153C47.0348 19.4993 47.0885 19.3928 47.1618 19.3028C47.1621 19.3028 47.1618 19.3028 47.1627 19.3018C47.2376 19.2099 47.3333 19.135 47.4439 19.0845L47.4449 19.0842C47.5169 19.0513 47.5949 19.0285 47.6768 19.0184L49.2398 18.8115L49.1289 17.299C49.0982 16.882 49.3984 16.5133 49.8129 16.4583L51.2315 16.2703L51.1295 14.8795C51.0988 14.4624 51.399 14.0934 51.8135 14.0384L53.2286 13.8511L53.1326 12.302C53.1266 12.217 53.1345 12.1342 53.1541 12.0552C53.1831 11.9393 53.2378 11.8328 53.3121 11.7431C53.3124 11.7428 53.3127 11.7424 53.313 11.7421C53.3854 11.6546 53.4779 11.5826 53.5831 11.5326C53.5838 11.5326 53.5841 11.5323 53.5844 11.5323C53.6583 11.4976 53.7386 11.4736 53.8236 11.4635L55.3863 11.2565L55.2754 9.74406C55.2447 9.32701 55.5449 8.95829 55.9594 8.90332L57.378 8.71533L57.276 7.32452C57.2453 6.90746 57.5455 6.53844 57.96 6.48346L59.3751 6.2961L59.3085 5.22345L54.7048 3.2216C51.6258 2.0033 48.0945 2.73441 45.7334 5.09518L14.0724 36.7558L22.5335 47.9686ZM15.4594 57.1965C14.7883 57.1965 14.1176 56.9412 13.607 56.4303L5.59454 48.4178C5.09976 47.9231 4.82709 47.2653 4.82709 46.5654C4.82709 45.8656 5.09976 45.2078 5.59454 44.713L6.21885 44.0887C6.71363 43.5939 7.37144 43.3213 8.07126 43.3213C8.77109 43.3213 9.4289 43.5936 9.92367 44.0887L17.9362 52.1012C18.9573 53.1226 18.9573 54.7849 17.9362 55.806L17.3115 56.4306C16.8013 56.9412 16.1302 57.1965 15.4594 57.1965ZM8.07126 44.901C7.79354 44.901 7.53225 45.0091 7.33573 45.2056L6.71142 45.8299C6.5149 46.0264 6.40684 46.2877 6.40684 46.5654C6.40684 46.8431 6.51521 47.1044 6.71142 47.301L14.7239 55.3134C15.1296 55.7188 15.789 55.7188 16.1946 55.3134L16.8193 54.6888C17.2246 54.2834 17.2246 53.6234 16.8193 53.2181L8.80679 45.2056C8.61027 45.0091 8.3493 44.901 8.07126 44.901Z" fill="#016287" stroke="#016287" stroke-width="1.05316"/>
</svg>
